<?xml version="1.0" standalone="no"?>
<!DOCTYPE svg PUBLIC "-//W3C//DTD SVG 20010904//EN"
 "http://www.w3.org/TR/2001/REC-SVG-20010904/DTD/svg10.dtd">
<svg version="1.0" xmlns="http://www.w3.org/2000/svg"
 width="108.000000pt" height="35.000000pt" viewBox="0 0 108.000000 35.000000"
 preserveAspectRatio="xMidYMid meet">
<metadata>
Created by potrace 1.16, written by Peter Selinger 2001-2019
</metadata>
<g transform="translate(0.000000,35.000000) scale(0.021600,-0.016432)"
fill="#000000" stroke="none">
<path d="M1301 1738 c-52 -118 -57 -136 -39 -154 27 -27 51 -8 101 81 52 94
56 110 28 125 -44 23 -61 13 -90 -52z"/>
<path d="M1575 1530 c-42 -49 -60 -78 -60 -97 0 -49 33 -40 110 28 85 75 95
92 70 119 -31 35 -56 24 -120 -50z"/>
<path d="M914 1571 c-33 -20 -54 -64 -54 -111 0 -188 304 -546 566 -667 73
-34 167 -42 211 -20 134 70 36 327 -218 574 -88 86 -134 122 -210 169 -117 71
-233 93 -295 55z m170 -120 c194 -68 497 -402 484 -533 -3 -32 -4 -33 -45 -31
-123 5 -369 212 -485 406 -57 95 -64 176 -15 177 4 0 32 -8 61 -19z"/>
<path d="M1171 1231 c-12 -8 -8 -18 22 -54 20 -25 59 -64 87 -87 l50 -42 10
27 c13 35 13 51 -5 84 -24 47 -72 81 -113 81 -20 0 -43 -4 -51 -9z"/>
<path d="M2350 1350 l0 -110 90 0 c89 0 90 0 90 24 0 23 -4 25 -52 28 l-53 3
-3 83 -3 82 -34 0 -35 0 0 -110z"/>
<path d="M2621 1438 c-5 -13 -20 -54 -34 -93 -14 -38 -28 -78 -32 -87 -6 -15
-1 -18 28 -18 22 0 37 6 41 15 3 10 19 15 46 15 29 0 40 -4 40 -15 0 -11 11
-15 39 -15 l39 0 -41 110 -40 110 -39 0 c-31 0 -40 -4 -47 -22z"/>
<path d="M2821 1423 c12 -21 31 -50 41 -65 11 -16 18 -44 18 -72 0 -46 0 -46
35 -46 34 0 35 1 35 40 0 30 10 57 40 104 22 35 40 66 40 70 0 3 -15 6 -33 6
-28 0 -37 -6 -53 -35 -10 -19 -21 -35 -24 -35 -3 0 -14 16 -24 35 -17 31 -24
35 -58 35 l-40 0 23 -37z"/>
<path d="M3121 1438 c-5 -13 -20 -54 -34 -93 -14 -38 -28 -78 -32 -87 -6 -15
-1 -18 28 -18 22 0 37 6 41 15 3 10 19 15 46 15 29 0 40 -4 40 -15 0 -11 11
-15 39 -15 l39 0 -41 110 -40 110 -39 0 c-31 0 -40 -4 -47 -22z"/>
<path d="M3320 1350 l0 -110 30 0 c29 0 30 1 30 53 l1 52 47 -53 c35 -39 54
-52 75 -52 l27 0 0 110 0 110 -30 0 c-29 0 -30 -1 -30 -52 l-1 -53 -47 53
c-35 39 -54 52 -74 52 l-28 0 0 -110z"/>
<path d="M3641 1438 c-5 -13 -20 -54 -34 -93 -14 -38 -28 -78 -32 -87 -6 -15
-1 -18 28 -18 22 0 37 6 41 15 3 10 19 15 46 15 29 0 40 -4 40 -15 0 -11 11
-15 39 -15 l39 0 -41 110 -40 110 -39 0 c-31 0 -40 -4 -47 -22z"/>
<path d="M3840 1350 l0 -110 30 0 c29 0 30 1 30 53 l1 52 47 -53 c35 -39 54
-52 75 -52 l27 0 0 110 0 110 -30 0 c-29 0 -30 -1 -30 -52 l-1 -53 -47 53
c-35 39 -54 52 -74 52 l-28 0 0 -110z"/>
<path d="M830 1261 c0 -73 -29 -170 -71 -236 -17 -27 -68 -87 -113 -133 -80
-83 -81 -84 -81 -135 0 -138 159 -297 298 -297 46 0 50 2 149 95 136 128 232
173 372 176 l41 0 -43 20 c-24 10 -56 28 -71 38 -26 19 -31 19 -90 6 -34 -8
-84 -26 -112 -41 l-51 -25 -52 25 c-58 29 -115 83 -145 141 -27 51 -26 63 4
123 13 27 30 73 36 101 11 51 10 55 -27 127 -20 41 -39 74 -41 74 -2 0 -3 -27
-3 -59z"/>
<path d="M1763 1252 c-63 -35 -83 -52 -83 -68 0 -45 22 -46 121 -5 105 44 119
57 101 95 -17 37 -45 33 -139 -22z"/>
<path d="M2350 980 l0 -110 35 0 c33 0 35 2 35 35 0 34 1 35 38 35 50 0 82 29
82 75 0 53 -36 75 -121 75 l-69 0 0 -110z"/>
<path d="M2587 1083 c-4 -3 -7 -53 -7 -110 l0 -103 95 0 c95 0 95 0 95 25 0
24 -3 25 -61 25 -52 0 -60 2 -57 18 2 13 15 18 51 20 38 3 47 7 47 22 0 15 -9
19 -47 22 -35 2 -48 7 -48 18 0 11 14 16 58 18 53 3 57 5 57 27 0 25 -1 25
-88 25 -49 0 -92 -3 -95 -7z"/>
<path d="M2820 980 l0 -110 30 0 c29 0 30 1 30 53 l1 52 47 -53 c35 -39 54
-52 75 -52 l27 0 0 110 0 110 -30 0 c-29 0 -30 -1 -30 -52 l-1 -53 -47 53
c-35 39 -54 52 -74 52 l-28 0 0 -110z"/>
<path d="M3128 1074 c-35 -19 -48 -43 -48 -93 0 -77 33 -111 106 -111 19 0 45
5 57 11 16 9 22 9 25 0 2 -6 12 -11 23 -11 17 0 19 8 19 60 l0 60 -60 0 c-53
0 -60 -2 -60 -20 0 -15 7 -20 26 -20 34 0 26 -24 -10 -28 -15 -2 -34 2 -42 9
-17 14 -19 80 -2 97 17 17 53 15 68 -3 7 -8 25 -15 41 -15 41 0 39 34 -3 60
-39 23 -102 25 -140 4z"/>
<path d="M3377 988 c-21 -57 -37 -106 -37 -110 0 -5 16 -8 35 -8 24 0 35 5 35
15 0 11 11 15 40 15 27 0 43 -5 46 -15 4 -9 19 -15 41 -15 39 0 40 -11 -10
125 l-34 90 -39 3 -39 3 -38 -103z"/>
<path d="M3607 1083 c-4 -3 -7 -53 -7 -110 l0 -103 65 0 c103 0 145 32 145
111 0 50 -26 87 -68 98 -42 12 -125 15 -135 4z"/>
<path d="M3860 1005 c0 -78 2 -88 25 -110 20 -21 34 -25 80 -25 46 0 60 4 80
25 23 22 25 32 25 110 l0 86 -32 -3 -33 -3 -5 -80 c-5 -78 -6 -80 -32 -83 -35
-4 -48 25 -48 109 0 59 0 59 -30 59 l-30 0 0 -85z"/>
<path d="M4147 988 c-21 -57 -37 -106 -37 -110 0 -5 16 -8 35 -8 24 0 35 5 35
15 0 11 11 15 40 15 27 0 43 -5 46 -15 4 -9 19 -15 41 -15 39 0 40 -11 -10
125 l-34 90 -39 3 -39 3 -38 -103z"/>
<path d="M4377 1083 c-4 -3 -7 -53 -7 -110 l0 -103 35 0 35 0 0 51 0 51 46
-51 c35 -39 53 -51 75 -51 l29 0 0 110 0 110 -30 0 c-29 0 -30 -1 -30 -50 0
-27 -3 -50 -6 -50 -3 0 -26 23 -51 50 -42 47 -77 63 -96 43z"/>
<path d="M2350 611 l0 -111 30 0 30 0 1 63 1 62 17 -60 c15 -52 21 -60 44 -63
24 -3 27 1 42 55 9 32 18 63 20 68 2 6 4 -20 4 -57 l1 -68 35 0 36 0 -3 108
-3 107 -46 3 -47 3 -12 -53 c-18 -77 -22 -78 -39 -12 l-16 59 -48 3 -47 3 0
-110z"/>
<path d="M2716 711 c-7 -11 -76 -199 -76 -206 0 -3 16 -5 35 -5 24 0 35 5 35
15 0 11 11 15 40 15 27 0 43 -5 46 -15 6 -15 74 -22 74 -7 0 4 -17 52 -38 107
-37 100 -37 100 -74 103 -20 2 -39 -1 -42 -7z"/>
<path d="M2910 610 l0 -110 30 0 c28 0 30 2 30 40 l0 40 40 0 40 0 0 -40 c0
-39 1 -40 35 -40 l35 0 0 111 0 110 -32 -3 c-30 -3 -33 -6 -36 -40 -3 -37 -4
-38 -43 -38 -39 0 -39 0 -39 40 0 38 -2 40 -30 40 l-30 0 0 -110z"/>
<path d="M3197 618 c-21 -57 -37 -106 -37 -110 0 -5 16 -8 35 -8 24 0 35 5 35
15 0 11 11 15 40 15 27 0 43 -5 46 -15 4 -9 19 -15 41 -15 39 0 40 -11 -10
125 l-34 90 -39 3 -39 3 -38 -103z"/>
<path d="M3455 708 c-27 -15 -35 -28 -35 -59 0 -32 17 -47 72 -63 51 -16 62
-36 19 -36 -17 0 -31 5 -31 10 0 6 -13 10 -30 10 -23 0 -30 -5 -30 -19 0 -31
38 -51 96 -51 65 0 97 23 97 70 0 36 -15 49 -77 65 -46 12 -60 35 -22 35 13 0
28 -4 31 -10 3 -5 19 -10 36 -10 37 0 38 21 3 49 -30 23 -96 28 -129 9z"/>
<path d="M3660 610 l0 -110 35 0 35 0 0 110 0 110 -35 0 -35 0 0 -110z"/>
<path d="M3806 699 c-51 -40 -29 -92 49 -114 30 -9 55 -21 55 -26 0 -12 -57
-12 -65 1 -9 15 -65 12 -65 -3 0 -33 27 -51 88 -55 55 -4 63 -2 86 21 47 48
28 91 -49 110 -53 14 -73 37 -31 37 13 0 28 -4 31 -10 9 -15 65 -12 65 3 -1
53 -111 78 -164 36z"/>
<path d="M4000 708 c1 -7 11 -56 24 -108 l23 -95 39 0 39 0 14 65 14 65 15
-67 15 -68 38 0 37 0 23 98 c12 53 24 103 26 110 4 8 -6 12 -30 12 -34 0 -36
-2 -42 -37 -15 -87 -21 -92 -34 -25 -12 61 -12 62 -46 62 -33 0 -33 -1 -47
-62 l-14 -63 -13 63 c-14 61 -14 62 -47 62 -21 0 -34 -5 -34 -12z"/>
<path d="M4391 698 c-5 -13 -20 -54 -34 -93 -14 -38 -28 -78 -32 -87 -6 -15
-1 -18 28 -18 22 0 37 6 41 15 3 10 19 15 46 15 29 0 40 -4 40 -15 0 -11 11
-15 39 -15 l39 0 -41 110 -40 110 -39 0 c-31 0 -40 -4 -47 -22z"/>
<path d="M1105 561 c-43 -27 -112 -103 -98 -108 6 -2 47 -28 90 -57 107 -72
136 -86 178 -86 32 0 44 8 98 66 34 36 67 74 75 85 34 49 -31 95 -109 77 -41
-9 -56 -8 -123 16 -42 14 -77 26 -79 26 -1 0 -15 -9 -32 -19z"/>
</g>
</svg>
