<?xml version="1.0" standalone="no"?>
<!DOCTYPE svg PUBLIC "-//W3C//DTD SVG 20010904//EN"
 "http://www.w3.org/TR/2001/REC-SVG-20010904/DTD/svg10.dtd">
<svg version="1.0" xmlns="http://www.w3.org/2000/svg"
 width="50.000000pt" height="50.000000pt" viewBox="0 0 50.000000 50.000000"
 preserveAspectRatio="xMidYMid meet">
<metadata>
Created by potrace 1.16, written by Peter Selinger 2001-2019
</metadata>
<g transform="translate(0.000000,50.000000) scale(0.010000,-0.010000)"
fill="#000000" stroke="none">
<path d="M2739 3073 c-6 -16 -20 -52 -31 -80 -10 -29 -24 -55 -29 -58 -17 -11
-9 -25 15 -25 19 0 25 6 28 28 3 24 8 27 42 30 42 4 59 -11 50 -40 -4 -15 1
-18 25 -18 17 0 31 5 31 10 0 6 -4 10 -9 10 -5 0 -24 38 -43 85 -36 92 -59
109 -79 58z"/>
<path d="M3142 3015 c-19 -47 -38 -85 -43 -85 -5 0 -9 -4 -9 -10 0 -5 14 -10
31 -10 24 0 29 3 25 18 -9 29 8 44 50 40 34 -3 39 -6 42 -30 3 -22 9 -28 28
-28 23 0 33 14 16 22 -5 2 -23 40 -41 86 -44 108 -56 107 -99 -3z"/>
<path d="M3601 3058 c-10 -24 -24 -60 -32 -82 -8 -21 -20 -41 -26 -43 -24 -9
-13 -23 17 -23 19 0 30 5 29 13 -5 41 1 47 46 47 45 0 51 -6 46 -47 -1 -8 10
-13 29 -13 30 0 41 15 18 22 -7 3 -26 40 -43 84 -37 96 -57 105 -84 42z"/>
<path d="M2518 2768 c15 -15 17 -158 2 -158 -5 0 -10 -4 -10 -10 0 -5 16 -10
35 -10 19 0 35 5 35 10 0 6 -4 10 -10 10 -5 0 -10 11 -10 25 0 18 5 25 20 25
61 0 96 50 66 95 -15 22 -23 25 -78 25 -48 0 -59 -3 -50 -12z"/>
<path d="M2848 2768 c15 -15 17 -158 2 -158 -5 0 -10 -4 -10 -10 0 -5 16 -10
35 -10 38 0 43 7 19 24 -11 9 -14 26 -12 66 l3 54 58 -72 c32 -40 62 -72 67
-72 6 0 10 37 10 83 0 51 5 88 12 95 9 9 4 12 -26 12 -32 0 -36 -2 -27 -14 7
-8 11 -37 9 -67 l-3 -52 -50 66 c-38 50 -56 67 -74 67 -20 0 -22 -3 -13 -12z"/>
<path d="M3311 2738 c-10 -24 -24 -60 -32 -82 -8 -21 -20 -41 -26 -43 -24 -9
-13 -23 17 -23 19 0 30 5 29 13 -5 41 1 47 46 47 45 0 51 -6 46 -47 -1 -8 10
-13 29 -13 30 0 41 15 18 22 -7 3 -26 40 -43 84 -37 96 -57 105 -84 42z"/>
<path d="M3478 2768 c15 -15 17 -158 2 -158 -5 0 -10 -4 -10 -10 0 -15 86 -12
125 4 40 17 55 42 55 91 0 25 -8 43 -25 60 -21 22 -33 25 -92 25 -52 0 -64 -3
-55 -12z"/>
<path d="M3940 2695 c-18 -47 -37 -85 -41 -85 -5 0 -9 -4 -9 -10 0 -5 13 -10
29 -10 26 0 30 3 28 28 -2 26 0 27 43 27 43 0 45 -1 43 -27 -2 -25 2 -28 28
-28 16 0 29 5 29 10 0 6 -4 10 -9 10 -4 0 -23 38 -41 85 -24 61 -38 85 -50 85
-12 0 -26 -24 -50 -85z"/>
<path d="M4118 2768 c15 -15 17 -158 2 -158 -5 0 -10 -4 -10 -10 0 -5 16 -10
35 -10 19 0 35 5 35 10 0 6 -4 10 -10 10 -6 0 -10 27 -10 62 l0 61 56 -71 c30
-40 60 -72 65 -72 5 0 9 37 9 83 0 51 5 88 12 95 9 9 3 12 -27 12 -35 -1 -38
-2 -22 -14 12 -10 17 -27 17 -65 0 -28 -3 -51 -8 -51 -4 0 -30 29 -57 65 -37
50 -55 65 -74 65 -19 0 -22 -3 -13 -12z"/>
</g>
</svg>
