<?xml version="1.0" standalone="no"?>
<!DOCTYPE svg PUBLIC "-//W3C//DTD SVG 20010904//EN"
 "http://www.w3.org/TR/2001/REC-SVG-20010904/DTD/svg10.dtd">
<svg version="1.0" xmlns="http://www.w3.org/2000/svg"
 width="100.000000pt" height="100.000000pt" viewBox="0 0 100.000000 100.000000"
 preserveAspectRatio="xMidYMid meet">
<metadata>
Created by potrace 1.16, written by Peter Selinger 2001-2019
</metadata>
<g transform="translate(0.000000,100.000000) scale(0.020000,-0.020000)"
fill="#000000" stroke="none">
<path d="M1661 3465 c-51 -111 -56 -132 -42 -149 28 -33 48 -18 100 74 28 49
51 96 51 105 0 17 -30 35 -59 35 -16 0 -28 -16 -50 -65z"/>
<path d="M1935 3260 c-42 -49 -60 -78 -60 -97 0 -50 34 -41 111 28 84 76 93
92 69 119 -31 35 -56 24 -120 -50z"/>
<path d="M1279 3305 c-31 -17 -59 -71 -59 -113 0 -190 303 -547 566 -669 69
-32 174 -42 214 -21 114 60 50 281 -144 498 -212 236 -462 368 -577 305z m166
-124 c79 -28 192 -110 287 -209 129 -134 203 -256 196 -324 -3 -32 -4 -33 -45
-31 -143 6 -454 291 -519 475 -24 68 -18 103 19 107 4 1 32 -8 62 -18z"/>
<path d="M1531 2961 c-12 -8 -8 -18 22 -54 20 -25 59 -64 87 -87 l50 -42 10
27 c13 35 13 51 -5 84 -24 47 -72 81 -113 81 -20 0 -43 -4 -51 -9z"/>
<path d="M2895 3073 c-21 -54 -44 -102 -52 -106 -24 -15 -14 -27 23 -27 29 0
34 3 30 18 -10 31 8 43 60 40 47 -3 49 -4 47 -30 -2 -26 1 -28 33 -28 37 0 41
5 20 29 -8 9 -31 58 -51 109 -49 122 -60 122 -110 -5z"/>
<path d="M3090 3160 c0 -6 7 -13 15 -16 38 -15 98 -174 65 -174 -5 0 -10 -7
-10 -15 0 -11 11 -15 40 -15 29 0 40 4 40 15 0 8 -4 15 -10 15 -33 0 27 159
66 174 26 10 5 26 -33 26 -31 0 -35 -3 -30 -21 5 -20 -20 -89 -33 -89 -13 0
-38 69 -33 89 5 19 1 21 -36 21 -22 0 -41 -5 -41 -10z"/>
<path d="M3412 3128 c-11 -24 -27 -65 -37 -93 -10 -27 -24 -57 -32 -66 -20
-24 -16 -29 22 -29 33 0 34 1 29 30 l-6 30 57 0 58 0 -6 -30 c-6 -29 -5 -30
28 -30 36 0 43 8 25 26 -6 6 -27 52 -48 104 -44 112 -63 124 -90 58z"/>
<path d="M3590 3155 c0 -8 5 -15 10 -15 6 0 10 -35 10 -84 0 -47 -4 -88 -10
-91 -22 -13 -8 -25 30 -25 29 0 40 4 40 15 0 8 -7 15 -15 15 -12 0 -15 14 -15
66 0 78 2 78 81 -26 29 -39 59 -70 66 -70 10 0 13 24 13 100 0 60 4 100 10
100 6 0 10 7 10 15 0 11 -11 15 -40 15 -29 0 -40 -4 -40 -15 0 -8 7 -15 15
-15 12 0 15 -14 15 -65 0 -36 -2 -65 -4 -65 -3 0 -33 36 -67 80 -46 60 -67 80
-85 80 -15 0 -24 -6 -24 -15z"/>
<path d="M3906 3069 c-22 -55 -46 -103 -53 -106 -25 -10 -13 -23 23 -23 29 0
34 3 30 18 -10 31 8 43 60 40 47 -3 49 -4 47 -30 -2 -26 1 -28 33 -28 36 0 42
8 22 28 -7 7 -29 54 -49 105 -51 128 -62 127 -113 -4z"/>
<path d="M4110 3155 c0 -8 5 -15 10 -15 6 0 10 -35 10 -85 0 -50 -4 -85 -10
-85 -5 0 -10 -7 -10 -15 0 -11 11 -15 40 -15 41 0 52 12 24 28 -12 6 -14 23
-12 73 l3 64 64 -82 c35 -46 70 -83 77 -83 11 0 14 22 14 100 0 60 4 100 10
100 6 0 10 7 10 15 0 11 -11 15 -40 15 -29 0 -40 -4 -40 -15 0 -8 7 -15 15
-15 12 0 15 -14 15 -65 0 -36 -2 -65 -5 -65 -2 0 -30 33 -62 73 -32 39 -62 75
-68 79 -17 13 -45 9 -45 -7z"/>
<path d="M1187 2964 c-7 -123 -49 -204 -170 -331 -92 -96 -92 -96 -92 -147 2
-138 160 -296 298 -296 47 0 51 3 130 78 141 134 224 178 359 189 l69 6 -58
30 c-32 16 -63 33 -68 37 -16 13 -102 -8 -174 -42 l-64 -30 -41 20 c-55 26
-100 65 -136 117 -43 63 -46 86 -16 149 14 30 31 78 38 105 11 49 10 52 -27
126 -21 41 -39 75 -40 75 -1 0 -5 -39 -8 -86z"/>
<path d="M2125 2982 c-82 -48 -102 -76 -71 -101 12 -10 32 -5 108 28 104 44
118 57 100 95 -17 38 -45 33 -137 -22z"/>
<path d="M2650 2785 c0 -8 5 -15 10 -15 6 0 10 -35 10 -84 0 -47 -4 -88 -10
-91 -22 -13 -8 -25 30 -25 29 0 40 4 40 15 0 8 -4 15 -10 15 -5 0 -10 11 -10
25 0 18 5 25 19 25 101 0 137 114 44 139 -58 16 -123 14 -123 -4z"/>
<path d="M2850 2785 c0 -8 5 -15 10 -15 6 0 10 -35 10 -85 0 -50 -4 -85 -10
-85 -5 0 -10 -7 -10 -15 0 -12 16 -15 80 -15 l80 0 0 30 c0 17 -4 30 -10 30
-5 0 -10 -7 -10 -15 0 -11 -11 -15 -40 -15 -39 0 -40 1 -40 35 0 33 2 35 35
35 24 0 35 5 35 15 0 10 -11 15 -35 15 -33 0 -35 2 -35 35 0 34 1 35 40 35 29
0 40 -4 40 -15 0 -8 5 -15 10 -15 6 0 10 14 10 30 l0 30 -80 0 c-64 0 -80 -3
-80 -15z"/>
<path d="M3035 2790 c-3 -6 1 -13 9 -16 23 -9 23 -169 1 -178 -30 -11 -14 -26
30 -26 45 0 58 12 29 28 -12 6 -14 22 -12 70 l3 62 63 -80 c35 -44 68 -80 73
-80 5 0 9 43 9 95 0 76 3 97 15 101 32 13 16 34 -25 34 -29 0 -40 -4 -40 -15
0 -8 5 -15 10 -15 6 0 10 -29 10 -66 l0 -66 -65 81 c-62 77 -94 97 -110 71z"/>
<path d="M3354 2786 c-101 -45 -79 -198 31 -212 22 -3 52 -1 68 5 24 9 27 16
27 56 0 45 0 45 -35 45 -19 0 -35 -4 -35 -10 0 -5 9 -10 21 -10 31 0 23 -54
-10 -58 -43 -6 -72 7 -86 41 -17 42 -9 83 23 107 36 29 102 25 102 -6 0 -8 5
-14 10 -14 12 0 13 47 2 54 -23 14 -90 15 -118 2z"/>
<path d="M3592 2758 c-11 -24 -27 -65 -37 -93 -10 -27 -24 -57 -32 -66 -20
-24 -16 -29 22 -29 33 0 34 1 29 30 l-6 30 57 0 58 0 -6 -30 c-6 -29 -5 -30
28 -30 36 0 43 8 25 26 -6 6 -27 52 -48 104 -44 112 -63 124 -90 58z"/>
<path d="M3770 2785 c0 -8 5 -15 10 -15 6 0 10 -35 10 -84 0 -47 -4 -88 -10
-91 -5 -3 -10 -11 -10 -17 0 -15 139 -5 167 12 31 20 48 56 47 102 -2 70 -61
108 -166 108 -36 0 -48 -4 -48 -15z m155 -40 c54 -53 16 -145 -60 -145 l-35 0
0 85 0 85 35 0 c25 0 44 -8 60 -25z"/>
<path d="M4010 2785 c0 -8 5 -15 10 -15 6 0 10 -30 10 -71 0 -65 2 -73 29
-100 31 -31 67 -37 104 -17 38 20 46 40 47 114 0 54 4 73 15 78 30 11 14 26
-30 26 -33 0 -45 -4 -45 -15 0 -8 7 -15 16 -15 25 0 16 -137 -11 -156 -25 -18
-50 -18 -69 2 -18 18 -23 154 -6 154 6 0 10 7 10 15 0 11 -11 15 -40 15 -29 0
-40 -4 -40 -15z"/>
<path d="M4349 2773 c-6 -16 -22 -57 -35 -93 -14 -35 -31 -71 -39 -80 -22 -25
-19 -30 19 -30 32 0 35 2 33 28 -2 26 0 27 47 30 52 3 70 -9 60 -40 -4 -15 1
-18 30 -18 35 0 48 13 23 23 -7 3 -30 50 -51 106 -30 79 -42 101 -57 101 -12
0 -24 -11 -30 -27z"/>
<path d="M4520 2785 c0 -8 7 -15 15 -15 12 0 15 -16 15 -84 0 -65 -3 -85 -15
-90 -30 -11 -14 -26 30 -26 44 0 60 15 30 26 -11 5 -15 23 -15 71 l0 65 65
-81 c36 -45 70 -81 75 -81 6 0 10 42 10 99 0 80 3 100 16 105 27 10 5 26 -37
26 -40 0 -51 -12 -23 -28 12 -6 14 -23 12 -71 l-3 -63 -63 81 c-48 62 -68 81
-87 81 -16 0 -25 -6 -25 -15z"/>
<path d="M1480 2298 c-31 -11 -128 -110 -113 -115 6 -2 47 -28 90 -57 107 -72
136 -86 178 -86 32 0 44 8 103 71 79 84 85 93 77 118 -10 33 -63 51 -116 39
-38 -9 -55 -8 -95 6 -87 31 -99 33 -124 24z"/>
</g>
</svg>
