<?xml version="1.0" standalone="no"?>
<!DOCTYPE svg PUBLIC "-//W3C//DTD SVG 20010904//EN"
 "http://www.w3.org/TR/2001/REC-SVG-20010904/DTD/svg10.dtd">
<svg version="1.0" xmlns="http://www.w3.org/2000/svg"
 width="32.000000pt" height="38.000000pt" viewBox="0 0 32.000000 38.000000"
 preserveAspectRatio="xMidYMid meet">
<metadata>
Created by potrace 1.16, written by Peter Selinger 2001-2019
</metadata>
<g transform="translate(0.000000,38.000000) scale(0.006751,-0.008017)"
fill="#000000" stroke="none">
<path d="M2477 4708 c-9 -19 -36 -166 -62 -342 -51 -349 -51 -345 25 -366 54
-14 79 -5 95 34 29 69 195 590 195 612 0 34 -25 52 -90 66 -32 6 -57 15 -54
20 3 4 -17 8 -44 8 -45 0 -50 -2 -65 -32z"/>
<path d="M3529 4033 c-28 -32 -76 -87 -105 -123 -29 -36 -100 -121 -158 -190
-58 -69 -109 -136 -112 -149 -8 -29 11 -66 48 -94 31 -23 61 -18 98 15 14 13
123 106 242 206 120 101 222 191 227 200 15 28 -10 71 -77 135 -40 38 -69 57
-85 57 -18 0 -41 -17 -78 -57z"/>
<path d="M1502 3989 c-104 -18 -176 -68 -263 -183 -147 -194 -176 -305 -189
-746 -6 -193 -14 -323 -24 -376 -53 -269 -174 -464 -513 -820 -70 -74 -140
-156 -155 -182 -80 -140 -74 -347 16 -537 114 -242 307 -418 560 -512 94 -34
260 -43 354 -19 58 14 161 70 176 95 14 22 184 -70 313 -169 96 -73 185 -157
292 -277 80 -89 116 -113 167 -113 13 0 123 50 244 110 180 90 224 117 240
143 36 58 20 122 -42 169 -68 51 -318 221 -373 254 -16 9 -17 15 -7 44 41 115
-21 252 -146 322 l-54 31 35 18 c59 31 178 67 272 83 55 10 208 19 395 25 274
8 315 12 401 34 154 40 267 103 379 211 114 111 143 239 101 453 -103 525
-688 1261 -1320 1662 -335 212 -654 317 -859 280z m269 -250 c271 -68 629
-310 985 -664 278 -277 454 -506 583 -757 96 -190 131 -332 106 -433 -58 -225
-434 -134 -906 221 -177 133 -443 383 -591 556 -289 336 -471 664 -485 875 -5
69 -3 87 15 125 29 60 92 95 173 97 19 1 73 -9 120 -20z m-284 -855 c288 -453
723 -878 1165 -1137 83 -49 213 -114 261 -130 9 -4 17 -11 17 -17 0 -6 -58
-10 -164 -10 -252 0 -462 -26 -605 -75 -37 -12 -115 -46 -172 -75 l-104 -52
-67 11 c-203 33 -418 173 -563 366 -30 40 -55 77 -55 80 0 4 -8 19 -19 33 -27
38 -80 194 -87 256 -5 45 -3 58 18 92 36 56 66 118 97 204 58 154 79 298 82
572 4 257 1 253 69 112 31 -65 88 -169 127 -230z"/>
<path d="M2123 3026 c-67 -16 -147 -48 -157 -64 -15 -25 288 -359 474 -523 92
-81 202 -169 211 -169 10 0 57 118 69 170 39 181 -40 385 -194 499 -110 82
-270 116 -403 87z"/>
<path d="M4245 3020 c-49 -15 -171 -53 -270 -84 -251 -78 -264 -83 -271 -112
-9 -37 3 -97 23 -112 24 -18 107 -11 433 36 310 45 296 35 261 184 -19 81 -25
97 -47 107 -31 14 -22 15 -129 -19z"/>
</g>
</svg>
